<?xml version="1.0" standalone="no"?>
<!DOCTYPE svg PUBLIC "-//W3C//DTD SVG 20010904//EN"
 "http://www.w3.org/TR/2001/REC-SVG-20010904/DTD/svg10.dtd">
<svg version="1.0" xmlns="http://www.w3.org/2000/svg"
 width="980.000000pt" height="980.000000pt" viewBox="0 0 980.000000 980.000000"
 preserveAspectRatio="xMidYMid meet">

<g transform="translate(0.000000,980.000000) scale(0.100000,-0.100000)"
fill="#000000" stroke="none">
<path d="M4635 9794 c-174 -13 -318 -28 -440 -45 -1387 -199 -2628 -992 -3399
-2171 -637 -977 -904 -2144 -756 -3306 119 -923 501 -1799 1098 -2512 1094
-1307 2778 -1952 4466 -1709 1723 248 3195 1406 3844 3024 635 1587 398 3397
-624 4760 -468 624 -1069 1122 -1769 1465 -529 260 -1053 410 -1655 475 -136
15 -651 28 -765 19z m755 -458 c1126 -133 2122 -654 2864 -1496 553 -629 917
-1401 1050 -2230 44 -270 51 -377 51 -720 -1 -339 -11 -477 -57 -745 -195
-1154 -839 -2188 -1788 -2869 -628 -452 -1325 -718 -2125 -812 -189 -23 -736
-26 -920 -6 -705 77 -1286 270 -1880 623 -523 310 -1011 772 -1368 1292 -425
618 -672 1301 -759 2092 -17 159 -17 710 0 870 84 775 335 1465 759 2082 455
664 1101 1208 1828 1540 441 202 963 343 1415 382 69 6 141 13 160 15 88 10
643 -3 770 -18z"/>
<path d="M4755 8299 c-915 -63 -1638 -730 -1790 -1649 -22 -135 -30 -392 -16
-525 43 -394 194 -763 438 -1065 85 -105 272 -285 371 -355 76 -56 81 -61 60
-69 -282 -115 -524 -256 -742 -430 -123 -98 -327 -301 -420 -416 -187 -234
-371 -564 -460 -828 -82 -240 -144 -543 -133 -648 18 -177 204 -295 357 -227
115 51 150 113 161 287 21 348 215 801 482 1131 79 97 246 264 342 340 276
222 620 385 965 459 194 41 293 51 530 51 237 0 333 -10 533 -51 620 -130
1171 -524 1497 -1071 156 -262 268 -594 290 -859 9 -112 27 -159 82 -210 57
-54 95 -69 178 -69 88 0 137 22 190 81 75 86 84 169 41 379 -144 711 -528
1312 -1110 1735 -181 132 -356 230 -609 341 l-33 14 83 57 c323 221 583 575
713 973 139 424 138 862 -2 1285 -253 764 -924 1285 -1725 1340 -78 5 -147 9
-153 8 -5 0 -59 -4 -120 -9z m440 -489 c197 -42 368 -114 540 -227 131 -87
318 -273 404 -402 420 -633 314 -1456 -253 -1959 -197 -174 -441 -294 -711
-349 -137 -27 -434 -25 -572 5 -392 85 -727 310 -944 635 -297 444 -336 1004
-104 1483 73 152 157 268 289 400 247 246 530 386 876 434 106 15 361 4 475
-20z"/>
</g>
</svg>
